# Blender 5.1.2
# www.blender.org
mtllib bla.mtl
o Object_33
v 0.482538 0.180443 -0.182091
v 0.420188 0.191343 -0.230219
v 0.708449 -0.043036 -0.330359
v 0.735029 -0.037657 -0.242459
v 0.822918 -0.136772 -0.353811
v 0.849000 -0.131494 -0.267559
v 0.474630 0.238491 -0.314106
v 0.657002 0.094191 -0.342238
v 0.855148 -0.097049 -0.363292
v 0.882326 -0.077354 -0.324739
v 0.690525 0.116291 -0.286750
v 0.471385 0.193818 -0.174261
v 0.879882 -0.092043 -0.281494
v 0.636718 0.126731 -0.203107
v 0.882326 -0.077354 -0.324739
v 0.690525 0.116291 -0.286750
v 0.540203 0.236514 -0.193970
v 0.532996 0.247891 -0.192127
v 0.412031 0.363910 0.125166
v 0.507059 0.380133 -0.003464
v 0.466908 0.514833 0.163675
v 0.517608 0.286508 -0.263237
v 0.475684 0.410115 -0.077135
v 0.448131 0.519922 0.052021
v 0.283192 0.425033 0.041165
v 0.257751 0.455856 0.128909
v 0.366283 0.389893 0.208143
v 0.330263 0.517664 0.273552
v 0.372279 0.583529 0.088050
v 0.387857 0.433254 -0.079174
v 0.448131 0.519922 0.052021
v 0.475684 0.410115 -0.077135
v 0.428989 0.290384 -0.273144
v 0.517608 0.286508 -0.263237
v 0.349968 0.445882 0.057315
v 0.351461 0.351362 0.179591
v 0.307070 0.601977 0.158443
v 0.427391 0.565547 0.118412
v 0.315931 0.577587 0.223517
v 0.451125 0.264455 -0.295053
v 0.141680 -1.745532 -0.688460
v 0.209208 -1.325994 -0.379195
v 0.294755 -1.355273 -0.439246
v 0.383607 -1.138888 -0.211460
v 0.287498 -1.149049 -0.190870
v 0.384613 -1.093428 -0.204629
v 0.290063 -1.109330 -0.165106
v 0.454336 -1.146847 -0.098307
v 0.455832 -1.067501 -0.096867
v 0.440714 -1.207753 -0.135441
v 0.294774 -1.160906 -0.050358
v 0.276004 -1.222904 -0.102828
v 0.367534 -1.244035 -0.086134
v 0.385948 -1.167602 -0.036902
v 0.440714 -1.207753 -0.135441
v 0.454336 -1.146847 -0.098307
v 0.391622 -1.072954 -0.025434
v 0.455832 -1.067501 -0.096867
v 0.298996 -1.093835 -0.040903
v 0.395571 -0.584828 -0.068744
v 0.274583 -0.561523 -0.113934
v 0.442330 -0.535181 -0.173465
v 0.244262 -0.598202 -0.294621
v 0.204611 -0.575742 -0.097963
v 0.194831 -0.561113 -0.297694
v 0.357840 -1.464131 -0.372984
v 0.290975 -1.482128 -0.293410
v 0.213376 -1.427833 -0.301243
v 0.169530 -1.832675 -0.588284
v 0.113356 -1.797201 -0.613431
v 0.141680 -1.745532 -0.688460
v 0.169530 -1.832675 -0.588284
v 0.402015 -0.612228 -0.336902
v 0.402015 -0.612228 -0.336902
v 0.402015 -0.612228 -0.336902
v 0.442330 -0.535181 -0.173465
v 0.371444 -0.098339 -0.019488
v 0.362117 -0.444999 -0.046500
v 0.433685 -0.389830 -0.132685
v 0.193566 -0.124451 0.101039
v 0.203919 -0.480401 -0.020014
v 0.390734 -0.059692 -0.179638
v 0.424005 -0.358825 -0.290370
v 0.442330 -0.535181 -0.173465
v 0.204611 -0.575742 -0.097963
v 0.274583 -0.561523 -0.113934
v 0.395571 -0.584828 -0.068744
v 0.326374 -0.290503 -0.312675
v 0.342380 -0.383331 -0.353623
v 0.181922 -0.260519 -0.286647
v 0.174988 -0.057320 -0.239950
v 0.189052 -0.467168 -0.332413
v 0.225116 -0.512531 -0.352418
v 0.359200 -0.483943 -0.369094
v 0.244262 -0.598202 -0.294621
v 0.402015 -0.612228 -0.336902
v 0.194831 -0.561113 -0.297694
v 0.194831 -0.561113 -0.297694
v 0.432301 -0.403542 -0.300388
v 0.402015 -0.612228 -0.336902
v 0.402015 -0.612228 -0.336902
v 0.136193 0.171921 -0.158090
v 0.362207 0.185267 -0.091226
v 0.349968 0.445882 0.057315
v 0.046002 0.443567 -0.034287
v 0.173595 0.618931 0.167460
v 0.307070 0.601977 0.158443
v 0.315931 0.577587 0.223517
v 0.192229 0.560075 0.235358
v 0.080741 0.556956 0.276041
v -0.009800 0.573653 0.194102
v 0.359542 0.073242 0.044124
v 0.351461 0.351362 0.179591
v 0.273150 0.002979 0.112838
v 0.248219 0.243405 0.253685
v 0.090914 0.210326 0.295561
v 0.202503 0.499241 0.289086
v 0.014252 0.464491 0.307819
v 0.080741 0.556956 0.276041
v 0.192229 0.560075 0.235358
v 0.330263 0.517664 0.273552
v 0.315931 0.577587 0.223517
v 0.366283 0.389893 0.208143
v 0.179287 -0.045137 0.131466
v 0.886851 -0.136863 -0.259409
v 0.829621 -0.141470 -0.347068
v 0.861563 -0.166834 -0.313683
v 0.858337 -0.175698 -0.269048
v 0.876582 -0.217383 -0.257749
v 0.885208 -0.216234 -0.301314
v 0.904523 -0.233670 -0.263398
v 0.926077 -0.211586 -0.271322
v 0.917768 -0.258676 -0.348096
v 0.860235 -0.253547 -0.387636
v 0.944248 -0.257931 -0.315308
v 0.964735 -0.257208 -0.289121
v 0.885802 -0.266708 -0.251937
v 0.911069 -0.265108 -0.255839
v 0.892057 -0.292845 -0.256829
v 0.912491 -0.289969 -0.258104
v 0.895442 -0.311951 -0.242618
v 0.916249 -0.309022 -0.243916
v 0.904206 -0.293599 -0.338142
v 0.926976 -0.301038 -0.307369
v 0.878466 -0.311159 -0.317467
v 0.899214 -0.312809 -0.289268
v 0.871702 -0.339939 -0.314982
v 0.846009 -0.325653 -0.350523
v 0.848130 -0.304753 -0.355154
v 0.890473 -0.341392 -0.288569
v 0.865115 -0.284657 -0.388838
v 0.879656 -0.301496 -0.398331
v 0.846009 -0.325653 -0.350523
v 0.919613 -0.328041 -0.346248
v 0.871702 -0.339939 -0.314982
v 0.940159 -0.325168 -0.313889
v 0.950768 -0.258953 -0.364614
v 0.970676 -0.257135 -0.331784
v 0.890473 -0.341392 -0.288569
v 0.927504 -0.118541 -0.348293
v 0.876406 -0.127455 -0.378346
v 0.887923 -0.252654 -0.409134
v 0.865115 -0.284657 -0.388838
v 0.860235 -0.253547 -0.387636
v 0.899214 -0.312809 -0.289268
v 0.926976 -0.301038 -0.307369
v 0.970676 -0.257135 -0.331784
v 0.944248 -0.257931 -0.315308
v 0.882326 -0.077354 -0.324739
v 0.879882 -0.092043 -0.281494
v 0.931715 -0.123423 -0.289406
v 0.970676 -0.257135 -0.331784
v 0.986765 -0.255666 -0.305257
v 0.964735 -0.257208 -0.289121
v 0.926077 -0.211586 -0.271322
v 0.886851 -0.136863 -0.259409
v 0.906835 -0.214003 -0.235866
v 0.878142 -0.214252 -0.233953
v 0.869490 -0.165908 -0.244980
v 0.858337 -0.175698 -0.269048
v 0.876582 -0.217383 -0.257749
v 0.904523 -0.233670 -0.263398
v 0.915112 -0.263616 -0.230789
v 0.885787 -0.264534 -0.228747
v 0.916249 -0.309022 -0.243916
v 0.895442 -0.311951 -0.242618
v 0.885802 -0.266708 -0.251937
v 0.892057 -0.292845 -0.256829
v 0.912491 -0.289969 -0.258104
v 0.911069 -0.265108 -0.255839
v 0.849000 -0.131494 -0.267559
v 0.958354 -0.329961 -0.326237
v 0.974742 -0.327796 -0.299939
v 0.931906 -0.359807 -0.274034
v 0.918300 -0.361716 -0.294671
v 0.932135 -0.332149 -0.272471
v 0.957931 -0.309662 -0.288248
v 0.916648 -0.330949 -0.297530
v 0.938528 -0.308600 -0.315231
v 0.970676 -0.257135 -0.331784
v 0.944248 -0.257931 -0.315308
v 0.865115 -0.284657 -0.388838
v 0.848130 -0.304753 -0.355154
v 0.865115 -0.284657 -0.388838
v 0.932135 -0.332149 -0.272471
v 0.916648 -0.330949 -0.297530
v 0.918300 -0.361716 -0.294671
v 0.931906 -0.359807 -0.274034
v 0.957931 -0.309662 -0.288248
v 0.938528 -0.308600 -0.315231
v 0.860235 -0.253547 -0.387636
v 0.855148 -0.097049 -0.363292
v 0.829621 -0.141470 -0.347068
v 0.822918 -0.136772 -0.353811
v 0.849000 -0.131494 -0.267559
v 0.206853 -1.800299 -0.642121
v 0.141680 -1.745532 -0.688460
v 0.357840 -1.464131 -0.372984
v 0.141680 -1.745532 -0.688460
v 0.206853 -1.800299 -0.642121
v 0.199970 -1.852414 -0.671907
v 0.137612 -1.817074 -0.737152
v 0.160294 -1.884193 -0.605016
v 0.169530 -1.832675 -0.588284
v 0.193572 -1.929153 -0.790815
v 0.134232 -1.916673 -0.811199
v 0.282287 -2.108567 -0.457218
v 0.222725 -2.040672 -0.456563
v 0.163886 -2.093354 -0.408966
v 0.163054 -2.133797 -0.389569
v 0.100286 -1.859193 -0.658239
v 0.169530 -1.832675 -0.588284
v 0.113356 -1.797201 -0.613431
v 0.137612 -1.817074 -0.737152
v 0.141680 -1.745532 -0.688460
v 0.086007 -1.938299 -0.772649
v 0.129852 -2.080437 -0.422329
v 0.107530 -2.129386 -0.416597
v 0.134232 -1.916673 -0.811199
v 0.086007 -1.938299 -0.772649
v 0.282287 -2.108567 -0.457218
v 0.163054 -2.133797 -0.389569
v 0.107530 -2.129386 -0.416597
v 0.193572 -1.929153 -0.790815
v 0.086007 -1.938299 -0.772649
v 0.134232 -1.916673 -0.811199
v -0.007906 0.695452 0.520545
v -0.005006 0.642726 0.490538
v 0.060537 0.690581 0.452934
v -0.047985 0.661973 0.524417
v -0.056654 0.610016 0.513176
v -0.054774 0.608663 0.499514
v -0.067374 0.636809 0.521611
v -0.072519 0.642526 0.551673
v 0.007650 0.762704 0.517471
v 0.019116 0.835084 0.508881
v -0.079471 0.702048 0.544734
v -0.086339 0.680280 0.550842
v -0.100761 0.717829 0.556697
v -0.036566 0.731242 0.550307
v -0.044019 0.761319 0.571852
v -0.110239 0.738677 0.574502
v -0.122508 0.768604 0.586830
v -0.059377 0.799029 0.586386
v -0.162581 0.878614 0.582420
v -0.035945 0.891860 0.569792
v -0.049848 0.972281 0.463993
v 0.022186 0.879089 0.418712
v 0.048390 0.732375 0.382968
v 0.052812 0.539226 0.395487
v 0.042975 0.641530 0.323208
v -0.007963 0.539297 0.339256
v -0.005617 0.895380 0.317767
v -0.156873 0.946505 0.278479
v -0.090963 0.783052 0.222010
v 0.030668 0.783976 0.305271
v -0.049380 0.662238 0.250844
v -0.049380 0.662238 0.250844
v -0.009800 0.573653 0.194102
v 0.017203 0.560617 0.456445
v 0.002425 0.480347 0.410139
v -0.007963 0.539297 0.339256
v 0.014252 0.464491 0.307819
v 0.080741 0.556956 0.276041
v -0.018729 0.514379 0.455070
v -0.024310 0.526945 0.459034
v 0.080741 0.556956 0.276041
v -0.009800 0.573653 0.194102
v -0.117672 0.582361 0.306975
v -0.196905 0.700156 0.282275
v -0.188754 0.642657 0.350124
v -0.066763 0.492773 0.374377
v -0.007963 0.539297 0.339256
v -0.186509 0.597118 0.418718
v -0.271736 0.770831 0.389014
v -0.257062 0.733362 0.480972
v -0.203500 0.684933 0.496135
v -0.149214 0.643408 0.506266
v -0.112186 0.603249 0.479706
v -0.098499 0.643367 0.519311
v -0.056654 0.610016 0.513176
v -0.054774 0.608663 0.499514
v -0.067374 0.636809 0.521611
v -0.072519 0.642526 0.551673
v -0.104375 0.692876 0.542216
v -0.086339 0.680280 0.550842
v -0.100761 0.717829 0.556697
v -0.156108 0.687213 0.538226
v -0.173686 0.713560 0.558751
v -0.110239 0.738677 0.574502
v -0.122508 0.768604 0.586830
v -0.189044 0.751268 0.573282
v -0.263262 0.808137 0.546820
v -0.285938 0.885326 0.440136
v -0.243680 0.807697 0.293710
v -0.156873 0.946505 0.278479
v -0.090963 0.783052 0.222010
v -0.049380 0.662238 0.250844
v -0.217792 0.845782 0.565746
v -0.262890 0.915385 0.479059
v -0.285938 0.885326 0.440136
v -0.184334 0.990642 0.389367
v -0.156873 0.946505 0.278479
v -0.162581 0.878614 0.582420
v -0.183591 0.953975 0.515662
v -0.184334 0.990642 0.389367
v -0.184334 0.990642 0.389367
v -0.049848 0.972281 0.463993
v -0.093218 0.977881 0.496206
v -0.097377 0.890131 0.577913
v -0.183591 0.953975 0.515662
v -0.184334 0.990642 0.389367
v -0.072519 0.642526 0.551673
v -0.074948 0.648200 0.555037
v -0.086339 0.680280 0.550842
v 0.169530 -1.832675 -0.588284
v 0.206853 -1.800299 -0.642121
v -0.056096 0.664556 0.328091
v 0.060537 0.690581 0.452934
v -0.054774 0.608663 0.499514
v -0.005006 0.642726 0.490538
v -0.024310 0.526945 0.459034
v 0.017203 0.560617 0.456445
v -0.012145 0.520251 0.404853
v 0.060537 0.690581 0.452934
v -0.056096 0.664556 0.328091
v 0.427391 0.565547 0.118412
v 0.315931 0.577587 0.223517
v -0.095735 -0.119894 -0.026387
v -0.260544 -0.380926 0.113843
v -0.219930 -0.437809 0.054037
v -0.035066 -0.127267 -0.070857
v -0.296772 -0.550121 0.116655
v -0.336623 -0.494307 0.175340
v -0.080765 -0.160466 -0.160743
v -0.209612 -0.342577 -0.057512
v -0.337265 -0.541687 0.085098
v -0.374780 -0.510604 0.100575
v -0.256504 -0.300052 -0.031364
v -0.100534 -0.130405 -0.026801
v -0.375057 -0.488754 0.140750
v -0.222106 -0.217559 0.013492
v -0.374780 -0.510604 0.100575
v -0.256504 -0.300052 -0.031364
v -0.164608 -0.110773 -0.068618
v -0.168523 -0.131545 -0.075948
v -0.230531 0.146143 0.142712
v -0.270685 0.054850 0.016647
v -0.354437 0.242317 0.091041
v -0.146829 -0.121319 -0.154829
v -0.231259 0.064890 -0.058558
v -0.301314 0.212049 -0.004392
v -0.119793 0.228493 0.051345
v -0.143056 0.299961 0.111745
v -0.233151 0.223304 0.203477
v -0.268357 0.326591 0.212506
v -0.278344 0.314779 -0.000347
v -0.167474 0.129315 -0.064387
v -0.301314 0.212049 -0.004392
v -0.231259 0.064890 -0.058558
v -0.070855 -0.089406 -0.161863
v -0.146829 -0.121319 -0.154829
v -0.204147 0.261953 0.015084
v -0.175281 0.184124 0.144728
v -0.271673 0.402529 0.089546
v -0.327227 0.283348 0.029736
v -0.279940 0.380694 0.155596
v -0.074920 -0.125372 -0.162312
v -0.038826 -1.926098 0.141958
v -0.062018 -1.446313 0.057642
v 0.037206 -1.409555 0.081828
v -0.062251 -1.120351 0.076410
v 0.031973 -1.140121 0.098665
v -0.053928 -1.055427 0.050881
v 0.042886 -1.069054 0.085462
v -0.113732 -1.039972 0.173644
v -0.106532 -0.979302 0.144663
v -0.117073 -1.103313 0.178818
v 0.047063 -1.061932 0.214642
v 0.044370 -1.137356 0.213458
v -0.044885 -1.116350 0.239821
v -0.041553 -1.039155 0.235963
v -0.117073 -1.103313 0.178818
v -0.113732 -1.039972 0.173644
v -0.034108 -0.966454 0.206665
v -0.106532 -0.979302 0.144663
v 0.052750 -1.005574 0.193259
v 0.008418 -0.538646 -0.028558
v 0.123877 -0.553404 -0.089178
v -0.046639 -0.526835 -0.140124
v 0.136016 -0.625996 -0.263375
v -0.132413 -1.462183 0.180167
v -0.057073 -1.440762 0.250821
v 0.027061 -1.428838 0.208275
v -0.064729 -1.914008 0.274575
v -0.008169 -1.920860 0.232144
v -0.038826 -1.926098 0.141958
v -0.064729 -1.914008 0.274575
v 0.204611 -0.575742 -0.097963
v 0.136016 -0.625996 -0.263375
v 0.194831 -0.561113 -0.297694
v -0.046336 -0.622013 -0.281444
v -0.046336 -0.622013 -0.281444
v -0.046336 -0.622013 -0.281444
v -0.046639 -0.526835 -0.140124
v 0.003841 -0.114744 -0.002691
v -0.042287 -0.411070 -0.110935
v 0.041448 -0.459310 -0.031845
v 0.193566 -0.124451 0.101039
v 0.203919 -0.480401 -0.020014
v -0.033305 -0.078615 -0.160261
v -0.049795 -0.379968 -0.268719
v -0.046639 -0.526835 -0.140124
v 0.008418 -0.538646 -0.028558
v 0.123877 -0.553404 -0.089178
v 0.204611 -0.575742 -0.097963
v -0.055765 -0.423905 -0.277807
v -0.046336 -0.622013 -0.281444
v 0.027588 -0.397379 -0.339238
v -0.046336 -0.622013 -0.281444
v 0.038939 -0.303329 -0.299539
v 0.181922 -0.260519 -0.286647
v 0.174988 -0.057320 -0.239950
v 0.189052 -0.467168 -0.332413
v 0.155492 -0.515638 -0.349236
v 0.018439 -0.499149 -0.353523
v 0.136016 -0.625996 -0.263375
v -0.046336 -0.622013 -0.281444
v 0.194831 -0.561113 -0.297694
v 0.194831 -0.561113 -0.297694
v -0.067221 0.057287 -0.123251
v 0.136193 0.171921 -0.158090
v -0.204147 0.261953 0.015084
v 0.046002 0.443567 -0.034287
v -0.180174 0.504344 0.129456
v -0.271673 0.402529 0.089546
v -0.279940 0.380694 0.155596
v -0.176076 0.441942 0.190382
v -0.086799 0.507025 0.263545
v -0.009800 0.573653 0.194102
v -0.022449 -0.040601 0.015636
v -0.175281 0.184124 0.144728
v 0.077945 -0.055197 0.098278
v -0.046111 0.155638 0.244063
v 0.090914 0.210326 0.295561
v -0.159067 0.390244 0.257226
v 0.014252 0.464491 0.307819
v -0.086799 0.507025 0.263545
v -0.176076 0.441942 0.190382
v -0.268357 0.326591 0.212506
v -0.279940 0.380694 0.155596
v -0.233151 0.223304 0.203477
v 0.179287 -0.045137 0.131466
v -0.365772 -0.549208 0.214821
v -0.330791 -0.575444 0.164110
v -0.303144 -0.545261 0.130902
v -0.328699 -0.580989 0.209344
v -0.337884 -0.625083 0.222378
v -0.343566 -0.628209 0.178427
v -0.361018 -0.647571 0.216311
v -0.386382 -0.631415 0.205781
v -0.362546 -0.679333 0.132870
v -0.305069 -0.663331 0.096256
v -0.390686 -0.682916 0.164046
v -0.412545 -0.685501 0.188975
v -0.336200 -0.674836 0.230942
v -0.360862 -0.679234 0.225574
v -0.336103 -0.701931 0.227463
v -0.356525 -0.703849 0.224890
v -0.336086 -0.720536 0.242703
v -0.356878 -0.722488 0.240082
v -0.342226 -0.709687 0.145839
v -0.364784 -0.720487 0.175754
v -0.314667 -0.719823 0.168999
v -0.336388 -0.724670 0.196079
v -0.301822 -0.746139 0.173753
v -0.277624 -0.728266 0.138790
v -0.284047 -0.708668 0.132676
v -0.321542 -0.750441 0.199146
v -0.302771 -0.694753 0.096859
v -0.312496 -0.714933 0.087730
v -0.277624 -0.728266 0.138790
v -0.348942 -0.747106 0.139210
v -0.301822 -0.746139 0.173753
v -0.371759 -0.747290 0.170142
v -0.393445 -0.687975 0.114634
v -0.415442 -0.689017 0.146141
v -0.321542 -0.750441 0.199146
v -0.403361 -0.545295 0.122843
v -0.349642 -0.543912 0.096265
v -0.330732 -0.669885 0.073278
v -0.302771 -0.694753 0.096859
v -0.305069 -0.663331 0.096256
v -0.336388 -0.724670 0.196079
v -0.364784 -0.720487 0.175754
v -0.415442 -0.689017 0.146141
v -0.390686 -0.682916 0.164046
v -0.374780 -0.510604 0.100575
v -0.375057 -0.488754 0.140750
v -0.410362 -0.547917 0.181606
v -0.415442 -0.689017 0.146141
v -0.433211 -0.689857 0.171599
v -0.412545 -0.685501 0.188975
v -0.386382 -0.631415 0.205781
v -0.365772 -0.549208 0.214821
v -0.369538 -0.627531 0.242309
v -0.341715 -0.621146 0.245791
v -0.343372 -0.572746 0.232067
v -0.328699 -0.580989 0.209344
v -0.337884 -0.625083 0.222378
v -0.361018 -0.647571 0.216311
v -0.366826 -0.677391 0.250213
v -0.338248 -0.671506 0.253903
v -0.356878 -0.722488 0.240082
v -0.336086 -0.720536 0.242703
v -0.336200 -0.674836 0.230942
v -0.336103 -0.701931 0.227463
v -0.356525 -0.703849 0.224890
v -0.360862 -0.679234 0.225574
v -0.336623 -0.494307 0.175340
v -0.387542 -0.756738 0.157171
v -0.358691 -0.777009 0.212600
v -0.405746 -0.756982 0.182338
v -0.343633 -0.776851 0.192903
v -0.365213 -0.750084 0.212309
v -0.394250 -0.734913 0.193696
v -0.348719 -0.746708 0.188105
v -0.373792 -0.730881 0.167795
v -0.415442 -0.689017 0.146141
v -0.390686 -0.682916 0.164046
v -0.302771 -0.694753 0.096859
v -0.284047 -0.708668 0.132676
v -0.302771 -0.694753 0.096859
v -0.365213 -0.750084 0.212309
v -0.343633 -0.776851 0.192903
v -0.348719 -0.746708 0.188105
v -0.358691 -0.777009 0.212600
v -0.394250 -0.734913 0.193696
v -0.373792 -0.730881 0.167795
v -0.305069 -0.663331 0.096256
v -0.337265 -0.541687 0.085098
v -0.303144 -0.545261 0.130902
v -0.296772 -0.550121 0.116655
v -0.336623 -0.494307 0.175340
v -0.104029 -1.916445 0.213020
v -0.038826 -1.926098 0.141958
v -0.132413 -1.462183 0.180167
v -0.038826 -1.926098 0.141958
v -0.060184 -2.001552 0.148938
v -0.104897 -1.989212 0.234048
v -0.104029 -1.916445 0.213020
v -0.050131 -1.975146 0.296187
v -0.064729 -1.914008 0.274575
v -0.111912 -2.122170 0.185658
v -0.059208 -2.125700 0.149570
v -0.116086 -2.062810 0.570110
v -0.065611 -2.009442 0.517557
v 0.006674 -2.024069 0.572910
v 0.015714 -2.044701 0.611707
v -0.004298 -1.988457 0.227043
v -0.064729 -1.914008 0.274575
v -0.008169 -1.920860 0.232144
v -0.060184 -2.001552 0.148938
v -0.038826 -1.926098 0.141958
v -0.002517 -2.120761 0.181836
v 0.035932 -2.022499 0.547507
v 0.064386 -2.058592 0.576056
v -0.002517 -2.120761 0.181836
v -0.059208 -2.125700 0.149570
v -0.116086 -2.062810 0.570110
v 0.064386 -2.058592 0.576056
v 0.015714 -2.044701 0.611707
v -0.111912 -2.122170 0.185658
v -0.002517 -2.120761 0.181836
v -0.059208 -2.125700 0.149570
v -0.007963 0.539297 0.339256
v 0.002425 0.480347 0.410139
v -0.074393 0.525034 0.440274
v -0.018729 0.514379 0.455070
v -0.024310 0.526945 0.459034
v 0.014252 0.464491 0.307819
v -0.086799 0.507025 0.263545
v -0.086799 0.507025 0.263545
v -0.009800 0.573653 0.194102
v -0.009800 0.573653 0.194102
v -0.064729 -1.914008 0.274575
v -0.104029 -1.916445 0.213020
v -0.056096 0.664556 0.328091
v -0.054774 0.608663 0.499514
v -0.186509 0.597118 0.418718
v -0.112186 0.603249 0.479706
v -0.024310 0.526945 0.459034
v -0.012145 0.520251 0.404853
v -0.074393 0.525034 0.440274
v -0.186509 0.597118 0.418718
v -0.056096 0.664556 0.328091
v -0.327227 0.283348 0.029736
v -0.279940 0.380694 0.155596
vn -0.1948 -0.5472 0.8140
vn -0.8127 -0.5492 -0.1945
vn -0.6020 -0.6508 -0.4627
vn -0.2297 -0.5555 0.7992
vn -0.7180 -0.4973 -0.4870
vn -0.3273 -0.3690 0.8699
vn -0.2346 0.1827 -0.9548
vn 0.0268 0.1987 -0.9797
vn 0.0798 0.3903 -0.9172
vn 0.6318 0.7547 -0.1765
vn 0.6844 0.7113 -0.1603
vn -0.0528 -0.7409 0.6696
vn 0.5281 0.4970 0.6885
vn 0.4686 0.2538 0.8462
vn 0.6318 0.7547 -0.1766
vn 0.6818 0.7126 -0.1652
vn 0.5581 0.3762 0.7396
vn 0.9116 0.1321 0.3892
vn 0.2177 -0.8327 0.5092
vn 0.9782 -0.0470 0.2025
vn 0.8572 0.2565 0.4465
vn 0.6049 0.7039 -0.3724
vn 0.6063 0.6848 -0.4044
vn 0.6530 0.6534 -0.3830
vn -0.9474 -0.1801 -0.2647
vn -0.8018 0.0921 0.5904
vn 0.6053 -0.2899 0.7413
vn 0.6230 0.1827 0.7606
vn -0.0823 0.8784 -0.4709
vn -0.3513 0.6523 -0.6716
vn 0.6168 0.6861 -0.3858
vn -0.5697 0.4635 -0.6787
vn 0.6811 0.6877 -0.2513
vn 0.5509 0.5561 0.6223
vn 0.6956 -0.1595 0.7005
vn 0.2191 0.9749 0.0404
vn 0.6258 0.7800 0.0067
vn 0.5472 0.6980 0.4620
vn -0.4224 0.3030 -0.8543
vn -0.2456 0.5605 -0.7909
vn -0.7732 0.5393 -0.3336
vn 0.3417 0.5157 -0.7856
vn 0.4785 0.3290 -0.8141
vn -0.7785 0.4945 -0.3865
vn 0.3671 -0.0554 -0.9285
vn -0.9156 0.0770 -0.3947
vn 0.9902 -0.1307 0.0488
vn 0.9920 -0.0371 0.1209
vn 0.9655 -0.2600 -0.0149
vn -0.6951 -0.1966 0.6915
vn -0.7957 -0.2414 0.5555
vn 0.2192 -0.6461 0.7311
vn 0.2941 -0.3530 0.8882
vn 0.9683 -0.2490 -0.0179
vn 0.9914 -0.1308 -0.0039
vn 0.3167 -0.0054 0.9485
vn 0.9930 -0.0351 0.1127
vn -0.7068 -0.0171 0.7072
vn 0.3795 0.1005 0.9197
vn -0.4484 -0.4188 0.7897
vn 0.9958 0.0284 0.0871
vn -0.5423 -0.6928 -0.4753
vn 0.0215 -0.7444 0.6674
vn -0.1704 -0.9444 -0.2811
vn 0.9564 -0.2781 -0.0894
vn 0.1568 -0.6712 0.7245
vn -0.8119 -0.2276 0.5376
vn 0.1838 -0.6326 0.7524
vn -0.9310 -0.0351 0.3633
vn 0.1838 -0.6325 0.7524
vn 0.6175 -0.2501 -0.7458
vn 0.5145 -0.2273 -0.8268
vn 0.9958 0.0284 0.0870
vn 0.9927 -0.0234 0.1184
vn 0.8718 -0.0478 0.4874
vn 0.5101 -0.2254 0.8300
vn 0.9514 0.0147 0.3075
vn 0.0504 -0.3424 0.9382
vn 0.0617 -0.4924 0.8682
vn 0.8089 0.3150 -0.4964
vn 0.8233 0.2878 -0.4892
vn 0.9868 -0.0034 0.1621
vn 0.0375 -0.8338 0.5508
vn -0.2720 -0.8852 0.3773
vn 0.4874 -0.0194 0.8730
vn 0.1921 0.3837 -0.9032
vn 0.1898 0.2626 -0.9460
vn -0.0552 0.2450 -0.9679
vn -0.0750 0.3462 -0.9352
vn -0.0502 0.1065 -0.9930
vn -0.3387 -0.2507 -0.9069
vn 0.4326 0.0181 -0.9014
vn -0.4704 -0.3678 -0.8021
vn 0.7974 -0.1405 -0.5868
vn 0.0186 -0.8875 -0.4605
vn -0.1156 -0.9688 -0.2192
vn 0.8621 0.1272 -0.4905
vn 0.5334 -0.2164 -0.8177
vn 0.6228 -0.2878 -0.7275
vn -0.0706 0.3613 -0.9298
vn 0.7779 0.3054 -0.5492
vn 0.6145 0.2531 -0.7472
vn -0.1212 0.5837 -0.8029
vn 0.0124 0.9937 -0.1118
vn -0.0878 0.9339 -0.3467
vn -0.0470 0.7442 0.6663
vn 0.1236 0.6599 0.7411
vn 0.4715 0.6570 0.5882
vn -0.2088 0.9050 -0.3705
vn 0.9225 -0.1095 0.3702
vn 0.8688 -0.2646 0.4185
vn 0.5558 -0.3429 0.7573
vn 0.5033 -0.2386 0.8305
vn 0.0488 -0.3107 0.9492
vn 0.1907 0.2590 0.9469
vn 0.0273 -0.1621 0.9864
vn 0.4584 0.6425 0.6141
vn 0.0954 0.8067 0.5832
vn 0.0818 0.1788 0.9805
vn -0.1022 0.7677 0.6326
vn 0.5769 -0.7708 0.2703
vn 0.0721 -0.4292 0.9003
vn -0.1475 0.3274 0.9333
vn -0.9866 -0.0678 -0.1485
vn -0.8918 -0.3092 0.3303
vn -0.9942 0.0595 0.0897
vn -0.8718 -0.4614 -0.1647
vn -0.7068 -0.7055 -0.0527
vn 0.5110 -0.6014 -0.6142
vn 0.5893 -0.3399 0.7329
vn -0.7499 -0.1653 0.6406
vn -0.9672 -0.2172 -0.1315
vn -0.6860 -0.2848 0.6695
vn 0.0675 -0.1205 0.9904
vn -0.7948 -0.1655 -0.5839
vn 0.6288 0.0613 -0.7751
vn -0.6070 -0.3056 -0.7336
vn 0.5540 -0.1411 -0.8205
vn -0.4025 -0.8973 0.1813
vn 0.6412 -0.7597 0.1083
vn -0.5145 0.6805 0.5217
vn 0.1056 0.4015 0.9098
vn -0.5757 0.6180 0.5353
vn -0.1272 0.4775 0.8694
vn -0.6109 -0.7306 0.3050
vn -0.8456 -0.5320 -0.0447
vn -0.8818 0.4673 0.0633
vn -0.2270 -0.6474 0.7276
vn -0.9620 0.0685 -0.2645
vn -0.1046 -0.5106 -0.8534
vn -0.8455 -0.5321 -0.0447
vn -0.8819 0.4672 0.0633
vn 0.4196 -0.8003 -0.4283
vn -0.6109 -0.7307 0.3049
vn 0.7413 -0.5940 0.3124
vn 0.7377 -0.1202 -0.6643
vn 0.8458 -0.0056 -0.5334
vn -0.2270 -0.6474 0.7275
vn 0.7092 0.5411 -0.4518
vn 0.0014 0.3317 -0.9434
vn 0.0227 0.0187 -0.9996
vn -0.9620 0.0685 -0.2643
vn -0.9672 -0.2172 -0.1314
vn -0.1272 0.4776 0.8694
vn 0.1055 0.4015 0.9098
vn 0.8458 -0.0055 -0.5335
vn -0.6860 -0.2848 0.6696
vn -0.9866 -0.0678 -0.1484
vn 0.6825 0.7106 -0.1709
vn 0.4862 0.6128 0.6230
vn 0.7507 0.5121 0.4174
vn 0.9837 0.1047 0.1459
vn 0.5894 -0.3398 0.7329
vn -0.2849 0.1804 0.9414
vn 0.6164 0.1541 0.7722
vn -0.6043 0.0067 0.7968
vn -0.4893 0.3780 0.7859
vn 0.5109 -0.6015 -0.6142
vn 0.7606 0.0132 0.6490
vn -0.6197 -0.1717 0.7659
vn 0.6412 -0.7596 0.1084
vn -0.4026 -0.8972 0.1813
vn -0.7947 -0.1655 -0.5840
vn -0.6070 -0.3055 -0.7336
vn 0.5538 -0.1413 -0.8206
vn 0.6286 0.0614 -0.7753
vn -0.2622 -0.3345 0.9052
vn 0.2131 -0.4655 -0.8590
vn 0.8820 -0.4308 0.1909
vn -0.0315 -0.7252 0.6879
vn -0.6024 -0.7774 -0.1808
vn -0.2524 0.3212 0.9128
vn 0.0309 0.2472 0.9685
vn -0.9385 0.3162 -0.1388
vn -0.8753 0.2620 -0.4065
vn -0.6861 -0.2847 0.6695
vn -0.9620 0.0688 -0.2643
vn -0.1048 -0.5105 -0.8535
vn -0.8818 0.4674 0.0635
vn -0.2522 0.3211 0.9128
vn -0.9385 0.3161 -0.1388
vn -0.0316 -0.7252 0.6878
vn 0.0310 0.2470 0.9685
vn -0.8753 0.2618 -0.4066
vn -0.9672 -0.2172 -0.1316
vn 0.1338 0.3097 -0.9414
vn -0.3999 -0.8778 -0.2636
vn 0.2308 -0.7797 -0.5821
vn -0.0774 -0.5539 0.8290
vn -0.3031 -0.4425 0.8440
vn 0.9570 -0.1382 -0.2549
vn 0.9564 -0.2782 -0.0894
vn -0.1896 0.4944 -0.8483
vn 0.9620 -0.0806 -0.2607
vn 0.9557 0.2746 -0.1064
vn -0.1669 0.7033 -0.6910
vn 0.0456 0.4729 0.8800
vn 0.1915 -0.5370 0.8216
vn 0.6238 -0.2253 -0.7484
vn -0.1529 -0.0768 -0.9853
vn 0.8370 -0.4835 0.2562
vn 0.3711 0.6040 0.7053
vn 0.0353 0.4857 0.8734
vn 0.0393 -0.5732 0.8185
vn -0.9523 0.2363 0.1932
vn 0.1081 -0.5611 0.8206
vn -0.9595 -0.0839 0.2688
vn -0.1391 0.7194 -0.6805
vn -0.2407 0.4722 -0.8480
vn -0.7664 -0.3364 -0.5473
vn -0.4027 0.5304 0.7460
vn -0.7041 -0.6008 0.3786
vn -0.1530 0.6619 -0.7338
vn -0.1527 -0.0768 -0.9853
vn -0.7663 -0.3365 -0.5473
vn 0.8370 -0.4835 0.2561
vn 0.0393 -0.5732 0.8184
vn -0.7040 -0.6009 0.3785
vn -0.7664 -0.3364 -0.5472
vn -0.1528 -0.0769 -0.9853
vn 0.5394 -0.2857 0.7921
vn 0.6015 -0.7964 0.0626
vn 0.9646 -0.1112 0.2392
vn 0.5142 -0.2561 0.8185
vn 0.2056 -0.7352 0.6459
vn 0.3541 -0.9266 -0.1267
vn 0.1435 -0.6044 0.7837
vn 0.1948 -0.7136 0.6730
vn 0.7174 -0.0845 0.6915
vn 0.8718 0.2109 0.4421
vn 0.3859 -0.2193 0.8961
vn -0.0518 -0.1315 0.9900
vn 0.0948 -0.4943 0.8641
vn 0.4538 -0.3960 0.7983
vn 0.4748 -0.2742 0.8363
vn 0.0904 -0.4842 0.8702
vn -0.0288 -0.1909 0.9812
vn 0.3467 -0.0535 0.9365
vn -0.2211 0.3508 0.9100
vn 0.5270 0.4076 0.7457
vn 0.5380 0.8384 0.0876
vn 0.9069 0.4213 0.0024
vn 0.9840 0.1279 -0.1237
vn 0.8910 -0.4495 -0.0640
vn 0.9662 0.0517 -0.2527
vn 0.5658 -0.7710 -0.2924
vn 0.6739 0.5513 -0.4918
vn -0.1790 0.6809 -0.7102
vn 0.0773 0.0632 -0.9950
vn 0.8482 0.1905 -0.4942
vn 0.0831 0.0475 -0.9954
vn 0.0862 0.0576 -0.9946
vn -0.2352 0.7963 -0.5573
vn -0.1612 0.1580 0.9742
vn 0.3463 -0.9335 0.0930
vn 0.3750 -0.9222 -0.0942
vn 0.2615 -0.9550 0.1399
vn -0.1428 0.0652 0.9876
vn 0.9919 0.0801 -0.0984
vn 0.2626 0.7769 0.5722
vn 0.0921 -0.5985 0.7958
vn -0.3147 0.4242 0.8491
vn 0.2956 0.7843 0.5455
vn -0.1862 0.8417 -0.5067
vn 0.9880 0.0013 -0.1542
vn -0.6907 -0.5748 -0.4387
vn -0.6655 -0.3632 -0.6521
vn 0.0789 0.0567 -0.9953
vn -0.7833 -0.5221 -0.3373
vn -0.3083 -0.9077 -0.2848
vn 0.1759 -0.8967 -0.4062
vn -0.6929 -0.7209 0.0147
vn -0.9498 -0.2542 -0.1825
vn -0.8632 -0.4260 0.2710
vn -0.6047 -0.5773 0.5487
vn -0.3644 -0.6215 0.6935
vn 0.0712 -0.9974 0.0067
vn -0.3631 -0.5792 0.7299
vn 0.2054 -0.7352 0.6459
vn 0.1434 -0.6045 0.7836
vn 0.1948 -0.7135 0.6730
vn -0.3047 -0.4737 0.8263
vn -0.0515 -0.1313 0.9900
vn 0.0947 -0.4944 0.8640
vn -0.2245 -0.6458 0.7298
vn -0.3251 -0.5689 0.7554
vn 0.0904 -0.4842 0.8703
vn -0.3892 -0.3245 0.8621
vn -0.7864 -0.0761 0.6130
vn -0.9555 0.2883 -0.0633
vn -0.7693 0.0221 -0.6385
vn -0.1791 0.6809 -0.7102
vn 0.0773 0.0631 -0.9950
vn 0.0831 0.0474 -0.9954
vn -0.4706 0.2382 0.8496
vn -0.7447 0.5775 0.3345
vn -0.9554 0.2884 -0.0632
vn -0.3231 0.9281 -0.1850
vn -0.3366 0.7621 0.5531
vn -0.1791 0.6809 -0.7101
vn 0.1248 0.8978 0.4223
vn 0.0478 0.4291 0.9020
vn -0.3366 0.7621 0.5532
vn 0.1947 -0.7134 0.6732
vn -0.0256 -0.1992 0.9796
vn -0.0516 -0.1314 0.9900
vn -0.3631 -0.5792 0.7298
vn 0.9570 -0.1382 -0.2550
vn 0.0180 -0.3576 0.9337
vn 0.9023 -0.2257 0.3672
vn 0.2359 -0.9659 0.1070
vn 0.5539 -0.4189 0.7195
vn -0.3146 0.4243 0.8491
vn -0.1002 0.0971 0.9902
vn -0.4396 0.7723 0.4587
vn 0.9933 -0.0414 0.1074
vn 0.1443 -0.6771 0.7216
vn 0.5216 0.8531 -0.0054
vn 0.4438 0.8105 0.3823
vn 0.5301 0.8262 0.1907
vn 0.2518 0.2813 0.9260
vn 0.8325 -0.5483 0.0800
vn 0.9802 -0.1441 0.1358
vn 0.8998 -0.4325 -0.0573
vn 0.2781 0.4805 0.8317
vn 0.3855 -0.3842 -0.8389
vn 0.1005 -0.5652 -0.8188
vn -0.0435 -0.4221 -0.9055
vn -0.7883 0.1566 -0.5950
vn -0.8241 0.1253 -0.5524
vn 0.5934 -0.7865 0.1712
vn -0.7527 0.6341 0.1771
vn -0.6506 0.6090 0.4537
vn -0.7883 0.1567 -0.5951
vn -0.8249 0.1213 -0.5521
vn -0.1663 0.9381 -0.3039
vn -0.0987 -0.9916 -0.0837
vn -0.0054 -0.5299 0.8480
vn -0.8644 -0.4915 0.1062
vn -0.9827 -0.0947 0.1592
vn -0.6309 -0.0175 -0.7756
vn -0.6531 0.0098 -0.7572
vn -0.6862 -0.0299 -0.7268
vn 0.9581 0.2834 -0.0421
vn 0.4577 0.8119 0.3625
vn -0.5103 -0.1491 0.8470
vn -0.7838 -0.0731 0.6167
vn -0.1202 0.5536 -0.8241
vn 0.2478 0.4068 -0.8793
vn -0.6861 -0.0299 -0.7269
vn -0.6687 0.0123 -0.7434
vn 0.5150 0.2818 -0.8095
vn -0.8056 0.0258 -0.5919
vn -0.9109 0.0970 0.4011
vn -0.5137 -0.5526 0.6563
vn -0.8381 0.4994 -0.2196
vn -0.8819 0.2045 -0.4247
vn -0.9662 0.1570 0.2047
vn 0.5008 -0.0832 -0.8615
vn 0.2037 -0.1921 -0.9600
vn -0.3695 -0.0604 -0.9273
vn 0.7911 -0.0502 -0.6097
vn -0.4896 -0.1059 -0.8655
vn 0.7728 -0.0852 -0.6289
vn -0.4732 -0.4077 -0.7809
vn 0.8062 -0.3381 -0.4856
vn -0.9802 0.1174 0.1593
vn -0.9644 0.1684 0.2040
vn -0.9846 0.0455 0.1691
vn 0.7802 0.0436 0.6240
vn 0.8246 -0.0317 0.5649
vn -0.2077 0.0301 0.9777
vn -0.2040 0.2316 0.9512
vn -0.9854 0.0480 0.1634
vn -0.9869 0.1025 0.1249
vn -0.1777 0.4462 0.8771
vn -0.9632 0.1792 0.2001
vn 0.8064 0.1617 0.5688
vn -0.2405 0.5092 0.8263
vn 0.4442 -0.3439 0.8273
vn -0.9651 0.2143 0.1504
vn 0.3373 -0.8869 -0.3156
vn -0.9926 0.0059 0.1216
vn -0.1526 0.0465 0.9872
vn 0.8343 -0.0279 0.5506
vn -0.1657 0.0994 0.9812
vn 0.9555 -0.0393 0.2922
vn -0.1657 0.0993 0.9812
vn 0.2126 -0.6098 0.7635
vn 0.4104 -0.8877 0.2088
vn 0.1566 -0.4981 -0.8528
vn 0.2744 -0.9418 -0.1944
vn -0.7570 -0.4154 -0.5044
vn -0.6915 -0.4381 -0.5744
vn -0.7319 -0.3378 -0.5918
vn -0.9433 0.2096 0.2573
vn -0.9487 0.2244 0.2227
vn -0.7984 -0.2504 0.5477
vn -0.9143 -0.0552 0.4013
vn -0.3835 -0.1975 0.9022
vn 0.0693 -0.3305 0.9413
vn 0.0616 -0.4924 0.8682
vn -0.8739 0.1063 -0.4743
vn -0.8846 0.2206 -0.4109
vn -0.9641 0.0157 0.2651
vn -0.4587 0.2018 0.8654
vn 0.2300 -0.9184 0.3219
vn 0.0742 -0.8217 0.5651
vn -0.9030 0.0783 -0.4224
vn -0.7447 -0.2491 -0.6192
vn -0.2995 0.2409 -0.9232
vn -0.8635 -0.1381 -0.4850
vn -0.3069 0.3615 -0.8804
vn -0.0257 0.3347 -0.9420
vn -0.0501 0.1064 -0.9931
vn 0.2672 -0.2486 -0.9310
vn -0.4031 -0.1030 -0.9093
vn 0.2896 -0.4193 -0.8604
vn -0.7614 -0.2589 -0.5944
vn 0.0186 -0.8875 -0.4604
vn 0.1967 -0.9700 -0.1432
vn -0.7694 -0.0557 -0.6363
vn -0.0349 0.3759 -0.9260
vn -0.5654 -0.1259 -0.8151
vn -0.1298 0.5753 -0.8076
vn -0.5890 0.7868 -0.1843
vn -0.3597 0.7782 -0.5148
vn -0.5817 0.6079 0.5405
vn -0.6348 0.3957 0.6636
vn -0.8784 0.2523 0.4059
vn -0.3036 0.8745 -0.3784
vn -0.7986 -0.5143 0.3126
vn -0.6233 -0.7147 0.3174
vn -0.3786 -0.5916 0.7118
vn -0.3803 -0.4897 0.7846
vn 0.0292 -0.3063 0.9515
vn -0.4951 0.1348 0.8583
vn -0.0876 -0.2044 0.9750
vn -0.8438 0.2500 0.4749
vn -0.6698 0.6275 0.3970
vn -0.4735 0.2496 0.8446
vn -0.5144 0.7013 0.4935
vn -0.0720 -0.9541 0.2906
vn 0.0497 -0.4400 0.8966
vn 0.0067 0.4008 0.9161
vn 0.9138 -0.0804 0.3980
vn 0.9845 0.1507 -0.0899
vn 0.9472 0.2887 0.1393
vn 0.9620 -0.2591 -0.0861
vn 0.8486 -0.5280 0.0327
vn -0.3205 -0.7332 -0.5997
vn -0.5467 -0.4262 0.7207
vn 0.7225 0.0434 0.6900
vn 0.9979 0.0019 -0.0641
vn 0.6852 -0.0858 0.7232
vn -0.1060 -0.0806 0.9911
vn 0.8495 -0.0107 -0.5275
vn -0.5724 -0.1239 -0.8106
vn 0.7084 -0.1973 -0.6776
vn -0.4512 -0.3063 -0.8382
vn 0.5798 -0.7715 0.2620
vn -0.4608 -0.8788 0.1237
vn 0.3126 0.8061 0.5026
vn -0.2543 0.4141 0.8740
vn 0.3851 0.7599 0.5236
vn -0.0422 0.5388 0.8414
vn 0.7368 -0.5555 0.3855
vn 0.9442 -0.3274 0.0368
vn 0.7486 0.6582 0.0801
vn 0.3163 -0.5398 0.7801
vn 0.9379 0.2716 -0.2157
vn 0.2739 -0.5173 -0.8108
vn 0.7486 0.6582 0.0800
vn 0.9442 -0.3274 0.0367
vn -0.1998 -0.8960 -0.3964
vn 0.7367 -0.5556 0.3854
vn -0.6091 -0.7299 0.3103
vn -0.6452 -0.3195 -0.6940
vn -0.7849 -0.2258 -0.5771
vn 0.3162 -0.5399 0.7801
vn -0.8426 0.1849 -0.5058
vn -0.2548 -0.3349 -0.9072
vn 0.0416 -0.0393 -0.9984
vn -0.0422 0.5387 0.8414
vn -0.2543 0.4140 0.8740
vn -0.7849 -0.2257 -0.5771
vn 0.6852 -0.0858 0.7233
vn 0.9666 0.1523 -0.2061
vn -0.7655 0.0891 -0.6372
vn -0.7577 0.5960 0.2659
vn -0.8493 0.3450 0.3996
vn -0.7849 -0.2257 -0.5770
vn -0.9898 -0.1143 0.0850
vn -0.1059 -0.0806 0.9911
vn -0.5467 -0.4261 0.7208
vn 0.1276 0.5542 0.8225
vn -0.6862 0.0500 0.7257
vn 0.5319 0.1856 0.8262
vn 0.3377 0.5200 0.7845
vn 0.9472 0.2887 0.1394
vn -0.3204 -0.7332 -0.5998
vn -0.7865 -0.1262 0.6045
vn 0.5888 0.0142 0.8081
vn -0.4609 -0.8788 0.1237
vn 0.8494 -0.0107 -0.5276
vn 0.7082 -0.1975 -0.6778
vn -0.4512 -0.3062 -0.8382
vn -0.5723 -0.1240 -0.8106
vn 0.2081 0.3915 0.8964
vn -0.0447 -0.5461 -0.8365
vn 0.1462 -0.6620 0.7351
vn -0.7741 -0.6095 0.1709
vn 0.7720 -0.6284 -0.0959
vn 0.1115 0.4175 0.9018
vn -0.1512 0.2840 0.9468
vn 0.8511 0.5137 -0.1083
vn 0.8200 0.4324 -0.3749
vn 0.6852 -0.0859 0.7233
vn 0.9379 0.2718 -0.2157
vn 0.7484 0.6584 0.0801
vn 0.2741 -0.5173 -0.8108
vn 0.1114 0.4175 0.9018
vn 0.7720 -0.6283 -0.0959
vn 0.8511 0.5137 -0.1084
vn 0.1464 -0.6619 0.7352
vn 0.8200 0.4324 -0.3750
vn 0.9979 0.0019 -0.0642
vn -0.0824 -0.9601 -0.2673
vn 0.8991 -0.2496 0.3597
vn -0.7645 -0.6446 0.0042
vn -0.2593 -0.9186 0.2983
vn 0.2037 0.4216 0.8836
vn 0.1694 0.5671 0.8061
vn -0.9955 -0.0043 -0.0948
vn -0.9925 0.0059 0.1217
vn -0.0151 -0.2312 -0.9728
vn 0.0253 0.1090 -0.9937
vn -0.9627 0.2657 -0.0506
vn -0.9831 -0.1596 -0.0895
vn 0.0455 0.9246 0.3782
vn -0.1617 0.0497 0.9856
vn -0.7218 -0.6175 -0.3128
vn -0.0249 -0.6575 -0.7530
vn -0.7140 -0.2145 0.6664
vn -0.3005 0.9144 0.2713
vn 0.0719 0.9141 0.3990
vn 0.1790 0.0358 0.9832
vn 0.9444 0.2685 -0.1896
vn 0.0492 0.1018 0.9936
vn 0.9509 -0.1005 0.2926
vn 0.0709 0.1694 -0.9830
vn 0.1745 -0.2601 -0.9497
vn 0.6850 -0.6138 -0.3925
vn 0.4706 0.8641 0.1785
vn 0.8261 -0.2664 0.4965
vn -0.0626 0.0836 -0.9945
vn 0.6851 -0.6138 -0.3924
vn -0.0248 -0.6575 -0.7530
vn -0.7140 -0.2146 0.6665
vn 0.8261 -0.2665 0.4965
vn 0.1790 0.0356 0.9832
vn -0.7218 -0.6174 -0.3128
vn -0.0248 -0.6575 -0.7531
vn 0.3748 -0.9223 -0.0942
vn 0.3462 -0.9335 0.0930
vn -0.2555 0.0996 0.9617
vn 0.0920 -0.5986 0.7958
vn 0.3046 -0.9409 0.1482
vn -0.7800 -0.5623 -0.2746
vn 0.0230 0.0847 0.9961
vn -0.8019 0.3909 0.4519
vn -0.8204 0.3792 0.4279
vn -0.7092 -0.6134 -0.3476
vn -0.2835 0.8012 -0.5271
vn -0.2447 0.7922 -0.5591
vn -0.9955 -0.0043 -0.0949
vn 0.0346 -0.3511 0.9357
vn 0.4432 -0.8824 0.1578
vn -0.5999 -0.7797 0.1794
vn -0.3282 -0.6371 0.6974
vn -0.3131 0.8162 0.4856
vn -0.2594 -0.0197 0.9656
vn -0.7099 -0.6843 -0.1667
vn 0.1651 -0.6693 0.7245
vn -0.7963 0.3622 -0.4845
vn -0.8772 0.4686 0.1041
vt 0.730382 0.103619
vt 0.705649 0.144477
vt 0.906050 0.162418
vt 0.907543 0.101904
vt 0.999984 0.166941
vt 1.001061 0.095946
vt 0.733494 0.205318
vt 0.838940 0.209383
vt 0.991053 0.210366
vt 0.981648 0.252295
vt 0.840260 0.252371
vt 0.689743 0.104698
vt 0.991405 0.052870
vt 0.810174 0.064464
vt 0.981657 0.011468
vt 0.840250 0.011429
vt 0.734207 0.056759
vt 0.693123 0.056174
vt 0.518060 0.096757
vt 0.575201 0.047645
vt 0.473165 0.043970
vt 0.716055 0.011396
vt 0.597290 0.011359
vt 0.510869 0.011322
vt 0.522475 0.164896
vt 0.485011 0.157654
vt 0.479927 0.107408
vt 0.445175 0.049232
vt 0.473366 0.225391
vt 0.579352 0.211659
vt 0.510849 0.252622
vt 0.597275 0.252464
vt 0.688056 0.203710
vt 0.716059 0.252303
vt 0.459430 0.138427
vt 0.448360 0.105872
vt 0.445220 0.217118
vt 0.468555 0.252667
vt 0.435264 0.252667
vt 0.710772 0.204691
vt 0.809314 0.993189
vt 0.844593 0.748486
vt 0.799681 0.766537
vt 0.795370 0.616810
vt 0.844460 0.624653
vt 0.796731 0.566457
vt 0.846052 0.573862
vt 0.737687 0.589384
vt 0.737679 0.566887
vt 0.737691 0.611583
vt 0.903594 0.595045
vt 0.902086 0.622902
vt 0.947494 0.615460
vt 0.947980 0.591500
vt 0.993009 0.611673
vt 0.993010 0.589483
vt 0.948583 0.568105
vt 0.993012 0.566905
vt 0.904969 0.574145
vt 0.939443 0.344499
vt 0.898532 0.361084
vt 0.993076 0.320695
vt 0.854260 0.365264
vt 0.915162 0.347050
vt 0.854851 0.350073
vt 0.993004 0.780156
vt 0.944441 0.769131
vt 0.900724 0.759988
vt 0.936461 0.995025
vt 0.880074 0.997653
vt 0.789589 0.353336
vt 0.737576 0.320774
vt 0.459999 0.699940
vt 0.421847 0.911548
vt 0.493482 0.874305
vt 0.334346 0.703269
vt 0.334346 0.906337
vt 0.574509 0.696105
vt 0.570429 0.874521
vt 0.490508 0.948126
vt 0.334346 0.965522
vt 0.365140 0.975937
vt 0.420117 0.965795
vt 0.650541 0.838561
vt 0.643075 0.892767
vt 0.726515 0.817051
vt 0.726515 0.703484
vt 0.726515 0.932364
vt 0.709975 0.959389
vt 0.635989 0.948441
vt 0.695226 0.983366
vt 0.579503 0.979625
vt 0.726515 0.978941
vt 0.572418 0.925007
vt 0.726515 0.610225
vt 0.575486 0.609180
vt 0.574131 0.447552
vt 0.726515 0.445670
vt 0.628909 0.318546
vt 0.561909 0.331279
vt 0.561667 0.289065
vt 0.629838 0.284131
vt 0.681244 0.268659
vt 0.726515 0.308737
vt 0.465542 0.609718
vt 0.497836 0.448231
vt 0.389955 0.608312
vt 0.424485 0.456931
vt 0.334346 0.436815
vt 0.434410 0.332167
vt 0.334346 0.318454
vt 0.382074 0.269755
vt 0.433481 0.285227
vt 0.501409 0.332846
vt 0.501652 0.290161
vt 0.532354 0.423067
vt 0.334346 0.607952
vt 0.079805 0.232283
vt 0.164710 0.210607
vt 0.122523 0.194649
vt 0.082536 0.195321
vt 0.065738 0.163787
vt 0.098907 0.148763
vt 0.061632 0.142152
vt 0.067395 0.121429
vt 0.123677 0.114515
vt 0.175785 0.114562
vt 0.094627 0.115280
vt 0.071940 0.113520
vt 0.035702 0.148111
vt 0.041923 0.132093
vt 0.020229 0.138299
vt 0.026355 0.125859
vt 0.005702 0.131286
vt 0.011940 0.118620
vt 0.124248 0.087244
vt 0.097369 0.085301
vt 0.124231 0.055219
vt 0.098622 0.055224
vt 0.124118 0.033753
vt 0.158367 0.040381
vt 0.164154 0.054336
vt 0.099739 0.035139
vt 0.171577 0.088395
vt 0.192231 0.080816
vt 0.172887 0.036601
vt 0.229659 0.051083
vt 0.207206 0.014433
vt 0.253565 0.037615
vt 0.259273 0.099604
vt 0.295568 0.088781
vt 0.225257 0.005464
vt 0.257519 0.214069
vt 0.210893 0.208562
vt 0.203087 0.112287
vt 0.256732 0.004405
vt 0.275505 0.029551
vt 0.296663 0.056271
vt 0.254448 0.243670
vt 0.287294 0.248875
vt 0.299549 0.220380
vt 0.323300 0.104611
vt 0.343328 0.116239
vt 0.349575 0.166371
vt 0.341191 0.234380
vt 0.379236 0.180734
vt 0.393815 0.198439
vt 0.369935 0.227020
vt 0.383913 0.245331
vt 0.408148 0.211617
vt 0.372524 0.153454
vt 0.406401 0.154959
vt 0.418570 0.170953
vt 0.432503 0.130104
vt 0.445823 0.142555
vt 0.433494 0.180403
vt 0.448844 0.163198
vt 0.412154 0.127150
vt 0.395815 0.139939
vt 0.325332 0.261049
vt 0.344700 0.051550
vt 0.359289 0.070966
vt 0.389947 0.045029
vt 0.374202 0.026325
vt 0.391323 0.064504
vt 0.369359 0.086828
vt 0.352694 0.023153
vt 0.330809 0.036634
vt 0.068269 0.054545
vt 0.088448 0.054365
vt 0.085147 0.033440
vt 0.068311 0.035581
vt 0.069129 0.082960
vt 0.091835 0.081384
vt 0.214759 0.239928
vt 0.170727 0.242683
vt 0.094294 0.262400
vt 0.737783 0.987757
vt 0.737708 0.780107
vt 0.274783 0.263290
vt 0.251897 0.284556
vt 0.265085 0.304716
vt 0.290410 0.280108
vt 0.230808 0.322133
vt 0.234686 0.293532
vt 0.317161 0.315098
vt 0.326877 0.296848
vt 0.247112 0.446506
vt 0.230894 0.421947
vt 0.204488 0.436013
vt 0.200804 0.450038
vt 0.202857 0.296193
vt 0.220949 0.280878
vt 0.186739 0.265822
vt 0.206200 0.254811
vt 0.152216 0.291162
vt 0.194174 0.426648
vt 0.177297 0.438725
vt 0.148125 0.271043
vt 0.109679 0.437051
vt 0.158639 0.453515
vt 0.110675 0.292890
vt 0.130164 0.279394
vt 0.048936 0.787641
vt 0.037433 0.823986
vt 0.095670 0.805101
vt 0.018334 0.795488
vt 0.001309 0.823986
vt 0.001309 0.828672
vt 0.001309 0.805245
vt 0.001309 0.793266
vt 0.072476 0.756292
vt 0.104842 0.722758
vt 0.009703 0.762035
vt 0.001309 0.770446
vt 0.001309 0.745864
vt 0.041600 0.754625
vt 0.045013 0.731461
vt 0.001309 0.728107
vt 0.001309 0.706350
vt 0.045012 0.704329
vt 0.000634 0.640415
vt 0.080537 0.664700
vt 0.172489 0.654188
vt 0.168984 0.731210
vt 0.146949 0.810560
vt 0.044855 0.876465
vt 0.134665 0.883862
vt 0.053879 0.921862
vt 0.230813 0.753236
vt 0.327296 0.709405
vt 0.289853 0.844016
vt 0.198004 0.819694
vt 0.222406 0.906637
vt 0.208321 0.985394
vt 0.032665 0.835220
vt 0.001309 0.884699
vt 0.068912 0.997425
vt 0.136690 0.961832
vt 0.001309 0.847491
vt 0.001309 0.839125
vt 0.041894 0.649915
vt 0.070649 0.583980
vt 0.103642 0.580263
vt 0.049090 0.502723
vt 0.103028 0.449168
vt 0.013527 0.576938
vt 0.001309 0.788851
vt 0.992969 0.987765
vt 0.232379 0.916718
vt 0.282941 0.969753
vt 0.311768 0.908112
vt 0.306313 0.933309
vt 0.220304 0.994415
vt 0.243005 0.989735
vt 0.222758 0.978624
vt 0.468563 0.011307
vt 0.435273 0.011298
s 1
usemtl enemy_tonnel
f 1/1/1 2/2/2 3/3/3
f 1/1/1 3/3/3 4/4/4
f 4/4/4 3/3/3 5/5/5
f 4/4/4 5/5/5 6/6/6
f 3/3/3 2/2/2 7/7/7
f 3/3/3 7/7/7 8/8/8
f 5/5/5 3/3/3 8/8/8
f 5/5/5 8/8/8 9/9/9
f 10/10/10 9/9/9 8/8/8
f 10/10/10 8/8/8 11/11/11
f 11/11/11 8/8/8 7/7/7
f 1/1/1 12/12/12 2/2/2
f 4/4/4 6/6/6 13/13/13
f 14/14/14 4/4/4 13/13/13
f 1/1/1 4/4/4 14/14/14
f 14/14/14 13/13/13 15/15/15
f 14/14/14 15/15/15 16/16/16
f 16/16/16 17/17/17 14/14/14
f 1/1/1 14/14/14 17/17/17
f 18/18/18 12/12/12 1/1/1
f 18/18/18 1/1/1 17/17/17
f 18/18/18 19/19/19 12/12/12
f 18/18/18 20/20/20 19/19/19
f 20/20/20 21/21/21 19/19/19
f 22/22/22 20/20/20 18/18/18
f 16/16/16 22/22/22 17/17/17
f 18/18/18 17/17/17 22/22/22
f 22/22/22 23/23/23 20/20/20
f 24/24/24 21/21/21 20/20/20
f 24/24/24 20/20/20 23/23/23
f 25/25/25 12/12/12 19/19/19
f 26/26/26 25/25/25 19/19/19
f 26/26/26 19/19/19 27/27/27
f 19/19/19 21/21/21 27/27/27
f 21/21/21 28/28/28 27/27/27
f 29/29/29 25/25/25 26/26/26
f 29/29/29 30/30/30 25/25/25
f 30/30/30 29/29/29 31/31/24
f 30/30/30 31/31/24 32/32/31
f 33/33/32 30/30/30 32/32/31
f 33/33/32 32/32/31 34/34/33
f 27/27/27 35/35/34 26/26/26
f 27/27/27 36/36/35 35/35/34
f 35/35/34 37/37/36 26/26/26
f 37/37/36 29/29/29 26/26/26
f 37/37/36 38/38/37 29/29/29
f 31/31/24 29/29/29 38/38/37
f 37/37/36 39/39/38 38/38/37
f 30/30/30 33/33/32 2/2/2
f 30/30/30 2/2/2 25/25/25
f 25/25/25 2/2/2 12/12/12
f 2/2/2 33/33/32 40/40/39
f 40/40/39 33/33/32 34/34/33
f 7/7/7 40/40/39 34/34/33
f 7/7/7 2/2/2 40/40/39
f 11/11/11 7/7/7 34/34/33
f 41/41/40 42/42/41 43/43/42
f 42/42/41 44/44/43 43/43/42
f 42/42/41 45/45/44 44/44/43
f 45/45/44 46/46/45 44/44/43
f 45/45/44 47/47/46 46/46/45
f 48/48/47 44/44/43 46/46/45
f 49/49/48 48/48/47 46/46/45
f 48/48/47 50/50/49 44/44/43
f 43/43/42 44/44/43 50/50/49
f 51/51/50 47/47/46 45/45/44
f 52/52/51 51/51/50 45/45/44
f 52/52/51 45/45/44 42/42/41
f 51/51/50 52/52/51 53/53/52
f 51/51/50 53/53/52 54/54/53
f 54/54/53 53/53/52 55/55/54
f 54/54/53 55/55/54 56/56/55
f 57/57/56 54/54/53 56/56/55
f 57/57/56 56/56/55 58/58/57
f 59/59/58 51/51/50 54/54/53
f 59/59/58 54/54/53 57/57/56
f 51/51/50 59/59/58 47/47/46
f 59/59/58 57/57/56 60/60/59
f 60/60/59 57/57/56 58/58/57
f 59/59/58 60/60/59 61/61/60
f 47/47/46 59/59/58 61/61/60
f 60/60/59 58/58/57 62/62/61
f 47/47/46 61/61/60 63/63/62
f 64/64/63 63/63/62 61/61/60
f 64/64/63 65/65/64 63/63/62
f 53/53/52 66/66/65 55/55/54
f 53/53/52 67/67/66 66/66/65
f 53/53/52 52/52/51 68/68/67
f 53/53/52 68/68/67 67/67/66
f 69/69/68 66/66/65 67/67/66
f 68/68/67 69/69/68 67/67/66
f 52/52/51 42/42/41 68/68/67
f 42/42/41 70/70/69 68/68/67
f 42/42/41 71/41/40 70/70/69
f 68/68/67 70/70/69 72/69/70
f 63/63/62 73/71/71 46/46/45
f 63/63/62 46/46/45 47/47/46
f 74/71/72 49/49/48 46/46/45
f 75/71/72 76/72/73 49/49/74
f 77/73/75 78/74/76 79/75/77
f 77/73/75 80/76/78 78/74/76
f 80/76/78 81/77/79 78/74/76
f 79/75/77 82/78/80 77/73/75
f 79/75/77 83/79/81 82/78/80
f 79/75/77 78/74/76 84/80/82
f 78/74/76 81/77/79 85/81/83
f 78/74/76 85/81/83 86/82/84
f 86/82/84 87/83/85 78/74/76
f 78/74/76 87/83/85 84/80/82
f 82/78/80 83/79/81 88/84/86
f 89/85/87 88/84/86 83/79/81
f 89/85/87 90/86/88 88/84/86
f 91/87/89 88/84/86 90/86/88
f 91/87/89 82/78/80 88/84/86
f 92/88/90 90/86/88 89/85/87
f 92/88/90 89/85/87 93/89/91
f 89/85/87 94/90/92 93/89/91
f 93/89/91 94/90/92 95/91/93
f 94/90/92 89/85/87 96/92/94
f 97/93/95 92/88/90 93/89/91
f 98/93/96 93/89/91 95/91/93
f 89/85/87 83/79/81 99/94/97
f 89/85/87 99/94/97 96/92/94
f 99/94/97 83/79/81 79/75/77
f 99/94/97 79/75/77 84/80/82
f 100/92/98 99/94/97 84/80/82
f 94/90/92 101/92/99 95/91/93
f 91/87/89 102/95/100 103/96/101
f 91/87/89 103/96/101 82/78/80
f 102/95/100 104/97/102 103/96/101
f 102/95/100 105/98/103 104/97/102
f 105/98/103 106/99/104 104/97/102
f 107/100/105 104/97/102 106/99/104
f 106/99/104 108/101/106 107/100/105
f 106/99/104 109/102/107 108/101/106
f 110/103/108 109/102/107 106/99/104
f 106/99/104 111/104/109 110/103/108
f 105/98/103 111/104/109 106/99/104
f 77/73/75 82/78/80 103/96/101
f 77/73/75 103/96/101 112/105/110
f 113/106/111 112/105/110 103/96/101
f 113/106/111 103/96/101 104/97/102
f 113/106/111 114/107/112 112/105/110
f 77/73/75 112/105/110 114/107/112
f 113/106/111 115/108/113 114/107/112
f 115/108/113 116/109/114 114/107/112
f 116/109/114 115/108/113 117/110/115
f 117/110/115 115/108/113 113/106/111
f 116/109/114 117/110/115 118/111/116
f 117/110/115 119/112/117 118/111/116
f 117/110/115 120/113/118 119/112/117
f 120/113/118 117/110/115 121/114/119
f 120/113/118 121/114/119 122/115/120
f 77/73/75 114/107/112 80/76/78
f 117/110/115 113/106/111 123/116/121
f 117/110/115 123/116/121 121/114/119
f 80/76/78 114/107/112 124/117/122
f 114/107/112 116/109/114 124/117/122
f 125/118/123 126/119/124 127/120/125
f 128/121/126 125/118/123 127/120/125
f 127/120/125 129/122/127 128/121/126
f 127/120/125 130/123/128 129/122/127
f 129/122/127 130/123/128 131/124/129
f 130/123/128 132/125/130 131/124/129
f 133/126/131 130/123/128 127/120/125
f 127/120/125 134/127/132 133/126/131
f 130/123/128 133/126/131 135/128/133
f 130/123/128 135/128/133 132/125/130
f 135/128/133 136/129/134 132/125/130
f 137/130/135 129/122/127 131/124/129
f 137/130/135 131/124/129 138/131/136
f 139/132/137 137/130/135 138/131/136
f 139/132/137 138/131/136 140/133/138
f 141/134/139 139/132/137 140/133/138
f 141/134/139 140/133/138 142/135/140
f 135/128/133 133/126/131 143/136/141
f 135/128/133 143/136/141 144/137/142
f 144/137/142 143/136/141 145/138/143
f 144/137/142 145/138/143 146/139/144
f 145/138/143 147/140/145 146/139/144
f 148/141/146 147/140/145 145/138/143
f 149/142/147 148/141/146 145/138/143
f 143/136/141 149/142/147 145/138/143
f 147/140/145 150/143/148 146/139/144
f 143/136/141 151/144/149 149/142/147
f 152/145/150 153/146/151 149/142/152
f 154/147/153 153/146/151 152/145/150
f 154/147/153 155/148/154 153/146/151
f 156/149/155 155/148/154 154/147/153
f 157/150/156 156/149/155 154/147/153
f 154/147/153 152/145/150 157/150/156
f 157/150/156 158/151/157 156/149/155
f 156/149/155 159/152/158 155/148/154
f 158/151/157 157/150/156 160/153/159
f 157/150/156 161/154/160 160/153/159
f 157/150/156 162/155/161 161/154/160
f 152/145/150 162/155/161 157/150/156
f 162/155/161 152/145/150 163/144/162
f 164/127/163 162/155/161 163/144/162
f 161/154/160 162/155/161 164/127/163
f 156/149/155 165/156/164 159/152/158
f 156/149/155 166/157/165 165/156/164
f 167/151/166 166/157/165 156/149/155
f 167/151/166 168/158/167 166/157/165
f 126/119/168 161/154/160 164/127/163
f 161/154/160 169/159/169 160/153/159
f 170/160/170 160/153/159 169/159/169
f 170/160/170 171/161/171 160/153/159
f 172/151/166 160/153/159 171/161/171
f 173/162/172 172/151/166 171/161/171
f 171/161/171 174/163/134 173/162/172
f 171/161/171 175/164/173 174/163/134
f 171/161/171 176/165/174 175/164/173
f 170/160/170 176/165/174 171/161/171
f 177/166/175 175/164/173 176/165/174
f 176/165/174 178/167/176 177/166/175
f 176/165/174 179/168/177 178/167/176
f 180/169/126 179/168/177 176/165/174
f 178/167/176 179/168/177 180/169/126
f 178/167/176 180/169/126 181/170/127
f 177/166/175 182/171/178 175/164/173
f 178/167/176 183/172/179 177/166/175
f 178/167/176 184/173/180 183/172/179
f 181/170/127 184/173/180 178/167/176
f 184/173/180 185/174/181 183/172/179
f 184/173/180 186/175/182 185/174/181
f 181/170/127 187/176/183 184/173/180
f 187/176/183 186/175/182 184/173/180
f 187/176/183 188/177/184 186/175/182
f 189/178/185 183/172/179 185/174/181
f 189/178/185 190/179/186 183/172/179
f 190/179/186 182/171/178 177/166/175
f 190/179/186 177/166/175 183/172/179
f 170/160/170 191/180/187 176/165/174
f 192/181/188 193/182/189 194/183/190
f 192/181/188 194/183/190 195/184/191
f 172/151/166 193/182/189 192/181/188
f 172/151/166 173/162/172 193/182/189
f 193/182/189 196/185/192 194/183/190
f 193/182/189 197/186/193 196/185/192
f 173/162/172 197/186/193 193/182/189
f 173/162/172 174/163/134 197/186/193
f 192/181/188 195/184/191 198/187/194
f 192/181/188 198/187/194 199/188/195
f 200/151/166 192/181/188 199/188/195
f 200/151/166 199/188/195 201/158/196
f 202/144/197 152/145/198 203/142/199
f 133/126/131 134/127/132 151/144/162
f 133/126/131 204/144/149 143/136/141
f 205/189/200 206/190/201 207/191/191
f 205/189/200 207/191/191 208/192/202
f 209/193/203 206/190/201 205/189/200
f 209/193/203 210/194/204 206/190/201
f 135/128/133 210/194/204 209/193/203
f 136/129/134 135/128/133 209/193/203
f 126/119/124 211/127/205 127/120/125
f 161/154/160 212/195/206 169/159/169
f 213/119/207 212/195/206 161/154/160
f 213/119/207 214/196/208 212/195/206
f 215/197/209 214/196/208 213/119/207
f 215/197/209 213/119/207 125/118/210
f 216/198/211 217/41/40 43/43/42
f 216/198/211 43/43/42 218/199/212
f 218/199/212 43/43/42 50/50/49
f 219/200/213 220/201/214 221/202/215
f 219/200/213 221/202/215 222/203/216
f 220/201/214 223/204/217 221/202/215
f 220/201/214 224/205/218 223/204/217
f 221/202/215 225/206/219 222/203/216
f 222/203/216 225/206/219 226/207/220
f 221/202/215 227/208/221 225/206/219
f 221/202/215 223/204/217 228/209/222
f 221/202/215 228/209/222 227/208/221
f 229/210/223 227/208/221 228/209/222
f 223/204/217 229/210/223 228/209/222
f 229/210/223 230/211/224 227/208/221
f 223/204/217 231/212/225 229/210/223
f 232/205/226 231/212/225 223/204/217
f 232/205/226 233/213/227 231/212/225
f 233/213/227 234/214/228 231/212/225
f 233/213/227 235/215/229 234/214/228
f 234/214/228 236/216/230 231/212/225
f 231/212/225 237/217/231 229/210/223
f 237/217/231 231/212/225 238/218/232
f 229/210/223 237/217/231 238/218/232
f 229/210/223 238/218/232 230/211/224
f 231/212/225 236/216/230 238/218/232
f 234/214/233 239/219/234 240/216/235
f 241/220/236 242/221/237 243/218/238
f 244/222/219 241/220/236 243/218/238
f 244/222/219 243/218/238 245/216/239
f 246/223/240 244/222/219 245/216/239
f 247/224/241 248/225/242 249/226/243
f 247/224/241 250/227/244 248/225/242
f 250/227/244 251/228/245 248/225/242
f 252/229/246 248/225/242 251/228/245
f 251/228/245 250/227/244 253/230/247
f 253/230/247 250/227/244 254/231/248
f 249/226/243 255/232/249 247/224/241
f 249/226/243 256/233/250 255/232/249
f 250/227/244 247/224/241 257/234/251
f 258/235/252 250/227/244 257/234/251
f 258/235/252 257/234/251 259/236/253
f 247/224/241 260/237/254 257/234/251
f 247/224/241 255/232/249 260/237/254
f 261/238/255 259/236/253 257/234/251
f 257/234/251 260/237/254 261/238/255
f 260/237/254 255/232/249 261/238/255
f 255/232/249 256/233/250 261/238/255
f 259/236/253 261/238/255 262/239/256
f 262/239/256 261/238/255 263/240/257
f 261/238/255 264/241/258 263/240/257
f 256/233/250 264/241/258 261/238/255
f 263/240/257 264/241/258 265/242/259
f 266/243/260 264/241/258 256/233/250
f 266/243/260 256/233/250 267/244/261
f 256/233/250 268/245/262 267/244/261
f 249/226/243 268/245/262 256/233/250
f 249/226/243 269/246/263 268/245/262
f 270/247/264 269/246/263 249/226/243
f 270/247/264 271/248/265 269/246/263
f 270/247/264 272/249/266 271/248/265
f 268/245/262 273/250/267 267/244/261
f 269/246/263 273/250/267 268/245/262
f 274/251/268 267/244/261 273/250/267
f 274/251/268 273/250/267 275/252/269
f 275/252/269 273/250/267 276/253/270
f 271/248/265 276/253/270 269/246/263
f 269/246/263 276/253/270 273/250/267
f 275/252/269 276/253/270 277/254/271
f 271/248/265 278/254/272 276/253/270
f 279/255/273 278/254/272 271/248/265
f 270/247/264 249/226/243 280/256/274
f 281/257/275 270/247/264 280/256/274
f 270/247/264 281/257/275 282/249/276
f 282/249/277 283/258/278 271/248/279
f 283/258/278 284/259/280 271/248/279
f 285/260/281 281/257/275 280/256/274
f 286/261/282 285/260/281 280/256/274
f 287/259/283 288/255/284 271/248/285
f 289/248/286 290/253/287 278/254/288
f 289/248/286 291/246/289 290/253/287
f 292/247/290 291/246/289 289/248/286
f 292/247/290 289/248/286 293/249/291
f 292/247/290 294/226/292 291/246/289
f 294/226/292 295/245/293 291/246/289
f 294/226/292 296/233/294 295/245/293
f 294/226/292 297/232/295 296/233/294
f 294/226/292 298/224/296 297/232/295
f 298/224/296 294/226/292 299/225/297
f 298/224/296 299/225/297 300/227/298
f 300/227/298 299/225/297 301/228/299
f 302/229/246 301/228/299 299/225/297
f 301/228/299 303/230/300 300/227/298
f 303/230/300 304/231/301 300/227/298
f 300/227/298 305/234/302 298/224/296
f 306/235/303 305/234/302 300/227/298
f 306/235/303 307/236/304 305/234/302
f 298/224/296 305/234/302 308/237/305
f 298/224/296 308/237/305 297/232/295
f 309/238/306 305/234/302 307/236/304
f 305/234/302 309/238/306 308/237/305
f 308/237/305 309/238/306 297/232/295
f 297/232/295 309/238/306 296/233/294
f 307/236/304 310/239/307 309/238/306
f 310/239/307 311/240/257 309/238/306
f 309/238/306 311/240/257 312/241/308
f 296/233/294 309/238/306 312/241/308
f 313/243/309 296/233/294 312/241/308
f 313/243/309 314/244/310 296/233/294
f 296/233/294 314/244/310 295/245/293
f 295/245/293 314/244/310 315/250/311
f 316/251/312 315/250/311 314/244/310
f 316/251/312 317/252/313 315/250/311
f 317/252/313 290/253/287 315/250/311
f 317/252/313 318/254/314 290/253/287
f 291/246/289 295/245/293 315/250/311
f 291/246/289 315/250/311 290/253/287
f 313/243/309 312/241/308 319/262/315
f 319/262/315 320/263/316 313/243/309
f 313/243/309 320/263/316 321/264/317
f 321/264/317 320/263/316 322/265/318
f 322/265/318 323/266/268 321/264/317
f 319/262/315 312/241/308 324/242/259
f 320/263/316 319/262/315 324/242/259
f 311/240/257 324/242/259 312/241/308
f 320/263/316 324/242/259 325/267/319
f 326/265/318 320/263/316 325/267/319
f 327/265/318 328/264/261 323/266/320
f 328/264/261 327/265/318 329/263/321
f 266/243/260 328/264/261 329/263/321
f 330/262/322 266/243/260 329/263/321
f 266/243/260 330/262/322 264/241/258
f 330/262/322 265/242/259 264/241/258
f 329/263/321 265/242/259 330/262/322
f 329/263/321 331/267/323 265/242/259
f 332/265/318 331/267/323 329/263/321
f 333/231/324 250/227/244 334/268/325
f 250/227/244 335/235/326 334/268/325
f 333/231/324 334/268/325 300/227/327
f 300/227/327 334/268/325 335/235/326
f 336/69/68 337/269/328 66/66/65
f 338/270/329 339/271/330 340/272/331
f 339/271/330 341/273/332 340/272/331
f 342/274/333 343/275/334 344/276/335
f 343/275/334 345/271/336 344/276/335
f 346/270/337 344/276/335 345/271/336
f 347/277/338 348/278/339 21/21/21
f 24/24/24 347/277/338 21/21/21
f 348/278/339 28/28/28 21/21/21
f 349/1/340 350/4/341 351/3/342
f 349/1/340 351/3/342 352/2/343
f 350/4/341 353/5/344 351/3/342
f 350/4/341 354/6/345 353/5/344
f 351/3/342 355/7/346 352/2/343
f 351/3/342 356/8/347 355/7/346
f 353/5/344 356/8/347 351/3/342
f 353/5/344 357/9/348 356/8/347
f 358/10/349 356/8/347 357/9/348
f 358/10/349 359/11/350 356/8/347
f 359/11/350 355/7/346 356/8/347
f 349/1/340 352/2/343 360/12/351
f 350/4/341 361/13/352 354/6/345
f 362/14/353 361/13/352 350/4/341
f 349/1/340 362/14/353 350/4/341
f 362/14/353 363/15/354 361/13/352
f 362/14/353 364/16/355 363/15/354
f 364/16/355 362/14/353 365/17/356
f 349/1/340 365/17/356 362/14/353
f 366/18/357 365/17/356 349/1/340
f 366/18/357 349/1/340 360/12/351
f 366/18/357 360/12/351 367/19/358
f 366/18/357 367/19/358 368/20/359
f 368/20/359 367/19/358 369/21/360
f 370/22/361 366/18/357 368/20/359
f 364/16/355 365/17/356 370/22/361
f 366/18/357 370/22/361 365/17/356
f 370/22/361 368/20/359 371/23/362
f 372/24/363 368/20/359 369/21/360
f 372/24/363 371/23/362 368/20/359
f 373/25/364 367/19/358 360/12/351
f 374/26/365 367/19/358 373/25/364
f 374/26/365 375/27/366 367/19/358
f 367/19/358 375/27/366 369/21/360
f 369/21/360 375/27/366 376/28/367
f 377/29/368 374/26/365 373/25/364
f 377/29/368 373/25/364 378/30/369
f 378/30/369 379/31/370 377/29/368
f 378/30/369 380/32/371 379/31/370
f 381/33/372 380/32/371 378/30/369
f 381/33/372 382/34/373 380/32/371
f 375/27/366 374/26/365 383/35/374
f 375/27/366 383/35/374 384/36/375
f 383/35/374 374/26/365 385/37/376
f 385/37/376 374/26/365 377/29/368
f 385/37/376 377/29/368 386/38/377
f 379/31/370 386/38/377 377/29/368
f 385/37/376 386/38/377 387/39/378
f 378/30/369 352/2/343 381/33/372
f 378/30/369 373/25/364 352/2/343
f 373/25/364 360/12/351 352/2/343
f 352/2/343 388/40/379 381/33/372
f 388/40/379 382/34/373 381/33/372
f 355/7/346 382/34/373 388/40/379
f 355/7/346 388/40/379 352/2/343
f 359/11/350 382/34/373 355/7/346
f 389/41/380 390/43/381 391/42/382
f 391/42/382 390/43/381 392/44/383
f 391/42/382 392/44/383 393/45/384
f 393/45/384 392/44/383 394/46/385
f 393/45/384 394/46/385 395/47/386
f 396/48/387 394/46/385 392/44/383
f 397/49/388 394/46/385 396/48/387
f 396/48/387 392/44/383 398/50/389
f 390/43/381 398/50/389 392/44/383
f 399/51/390 393/45/384 395/47/386
f 400/52/391 393/45/384 399/51/390
f 400/52/391 391/42/382 393/45/384
f 399/51/390 401/53/392 400/52/391
f 399/51/390 402/54/393 401/53/392
f 402/54/393 403/55/394 401/53/392
f 402/54/393 404/56/395 403/55/394
f 405/57/396 404/56/395 402/54/393
f 405/57/396 406/58/397 404/56/395
f 407/59/398 405/57/396 402/54/393
f 407/59/398 402/54/393 399/51/390
f 399/51/390 395/47/386 407/59/398
f 407/59/398 408/60/399 405/57/396
f 408/60/399 406/58/397 405/57/396
f 407/59/398 409/61/400 408/60/399
f 395/47/386 409/61/400 407/59/398
f 408/60/399 410/62/401 406/58/397
f 395/47/386 411/63/402 409/61/400
f 401/53/392 403/55/394 412/66/403
f 401/53/392 412/66/403 413/67/404
f 401/53/392 414/68/405 400/52/391
f 401/53/392 413/67/404 414/68/405
f 415/69/406 413/67/404 412/66/403
f 414/68/405 413/67/404 415/69/406
f 400/52/391 414/68/405 391/42/382
f 391/42/382 414/68/405 416/70/407
f 391/42/382 416/70/407 417/41/380
f 414/68/405 418/69/408 416/70/407
f 419/64/409 409/61/410 420/63/411
f 419/64/409 420/63/411 421/65/412
f 411/63/402 394/46/385 422/71/413
f 411/63/402 395/47/386 394/46/385
f 423/71/414 394/46/385 397/49/388
f 424/71/415 397/49/416 425/72/417
f 426/73/418 427/75/419 428/74/420
f 426/73/418 428/74/420 429/76/421
f 429/76/421 428/74/420 430/77/422
f 427/75/419 426/73/418 431/78/423
f 427/75/419 431/78/423 432/79/424
f 428/74/420 427/75/419 433/80/425
f 428/74/420 433/80/425 434/83/426
f 435/82/427 428/74/420 434/83/426
f 428/74/420 436/81/428 430/77/422
f 428/74/420 435/82/427 436/81/428
f 437/94/429 433/80/425 427/75/419
f 437/94/429 427/75/419 432/79/424
f 438/92/430 433/80/425 437/94/429
f 439/85/431 437/94/429 432/79/424
f 437/94/429 439/85/431 440/92/432
f 439/85/431 432/79/424 441/84/433
f 431/78/423 441/84/433 432/79/424
f 439/85/431 441/84/433 442/86/88
f 443/87/434 442/86/88 441/84/433
f 443/87/434 441/84/433 431/78/423
f 444/88/435 439/85/431 442/86/88
f 444/88/435 445/89/436 439/85/431
f 439/85/431 445/89/436 446/90/437
f 439/85/431 446/90/437 440/92/432
f 446/90/437 445/89/436 447/91/438
f 448/92/439 446/90/437 447/91/438
f 449/93/440 445/89/436 444/88/435
f 450/93/441 447/91/438 445/89/436
f 443/87/434 431/78/423 451/96/442
f 443/87/434 451/96/442 452/95/443
f 452/95/443 451/96/442 453/97/444
f 452/95/443 453/97/444 454/98/445
f 454/98/445 453/97/444 455/99/446
f 456/100/447 455/99/446 453/97/444
f 455/99/446 456/100/447 457/101/448
f 455/99/446 457/101/448 458/102/449
f 459/103/450 455/99/446 458/102/449
f 455/99/446 459/103/450 460/104/451
f 454/98/445 455/99/446 460/104/451
f 426/73/418 451/96/442 431/78/423
f 426/73/418 461/105/452 451/96/442
f 462/106/453 453/97/444 451/96/442
f 462/106/453 451/96/442 461/105/452
f 462/106/453 461/105/452 463/107/454
f 426/73/418 463/107/454 461/105/452
f 462/106/453 463/107/454 464/108/455
f 464/108/455 463/107/454 465/109/456
f 465/109/456 466/110/457 464/108/455
f 466/110/457 462/106/453 464/108/455
f 465/109/456 467/111/458 466/110/457
f 466/110/457 467/111/458 468/112/459
f 466/110/457 468/112/459 469/113/460
f 469/113/460 470/114/461 466/110/457
f 469/113/460 471/115/462 470/114/461
f 426/73/418 429/76/421 463/107/454
f 466/110/457 472/116/463 462/106/453
f 466/110/457 470/114/461 472/116/463
f 429/76/421 473/117/464 463/107/454
f 463/107/454 473/117/464 465/109/456
f 474/118/465 475/120/466 476/119/467
f 477/121/468 475/120/466 474/118/465
f 475/120/466 477/121/468 478/122/469
f 475/120/466 478/122/469 479/123/470
f 478/122/469 480/124/471 479/123/470
f 479/123/470 480/124/471 481/125/472
f 482/126/473 475/120/466 479/123/470
f 475/120/466 482/126/473 483/127/474
f 479/123/470 484/128/475 482/126/473
f 479/123/470 481/125/472 484/128/475
f 484/128/475 481/125/472 485/129/476
f 486/130/477 480/124/471 478/122/469
f 486/130/477 487/131/478 480/124/471
f 488/132/479 487/131/478 486/130/477
f 488/132/479 489/133/480 487/131/478
f 490/134/481 489/133/480 488/132/479
f 490/134/481 491/135/482 489/133/480
f 484/128/475 492/136/483 482/126/473
f 484/128/475 493/137/484 492/136/483
f 493/137/484 494/138/485 492/136/483
f 493/137/484 495/139/486 494/138/485
f 494/138/485 495/139/486 496/140/487
f 497/141/488 494/138/485 496/140/487
f 498/142/489 494/138/485 497/141/488
f 492/136/483 494/138/485 498/142/489
f 496/140/487 495/139/486 499/143/490
f 492/136/483 498/142/489 500/144/491
f 501/145/492 498/142/493 502/146/494
f 503/147/495 501/145/492 502/146/494
f 503/147/495 502/146/494 504/148/496
f 505/149/497 503/147/495 504/148/496
f 506/150/498 503/147/495 505/149/497
f 503/147/495 506/150/498 501/145/492
f 506/150/498 505/149/497 507/151/499
f 505/149/497 504/148/496 508/152/500
f 507/151/499 509/153/501 506/150/498
f 506/150/498 509/153/501 510/154/502
f 506/150/498 510/154/502 511/155/503
f 501/145/492 506/150/498 511/155/503
f 511/155/503 512/144/491 501/145/492
f 513/127/474 512/144/491 511/155/503
f 510/154/502 513/127/474 511/155/503
f 505/149/497 508/152/500 514/156/504
f 505/149/497 514/156/504 515/157/505
f 516/151/506 505/149/497 515/157/505
f 516/151/506 515/157/505 517/158/507
f 476/119/508 513/127/474 510/154/502
f 510/154/502 509/153/501 518/159/509
f 519/160/510 518/159/509 509/153/501
f 519/160/510 509/153/501 520/161/511
f 521/151/512 520/161/511 509/153/501
f 522/162/513 520/161/511 521/151/512
f 520/161/511 522/162/513 523/163/514
f 520/161/511 523/163/514 524/164/515
f 520/161/511 524/164/515 525/165/516
f 519/160/510 520/161/511 525/165/516
f 526/166/517 525/165/516 524/164/515
f 525/165/516 526/166/517 527/167/518
f 525/165/516 527/167/518 528/168/519
f 529/169/520 525/165/516 528/168/519
f 527/167/518 529/169/520 528/168/519
f 527/167/518 530/170/469 529/169/520
f 526/166/517 524/164/515 531/171/521
f 527/167/518 526/166/517 532/172/522
f 527/167/518 532/172/522 533/173/523
f 530/170/469 527/167/518 533/173/523
f 533/173/523 532/172/522 534/174/524
f 533/173/523 534/174/524 535/175/481
f 530/170/469 533/173/523 536/176/525
f 536/176/525 533/173/523 535/175/481
f 536/176/525 535/175/481 537/177/526
f 538/178/527 534/174/524 532/172/522
f 538/178/527 532/172/522 539/179/528
f 539/179/528 532/172/522 526/166/517
f 539/179/528 526/166/517 531/171/521
f 519/160/510 525/165/516 540/180/529
f 541/181/530 542/183/531 543/182/532
f 541/181/530 544/184/533 542/183/531
f 521/151/512 541/181/530 543/182/532
f 521/151/512 543/182/532 522/162/513
f 543/182/532 542/183/531 545/185/534
f 543/182/532 545/185/534 546/186/535
f 522/162/513 543/182/532 546/186/535
f 522/162/513 546/186/535 523/163/514
f 541/181/530 547/187/536 544/184/533
f 541/181/530 548/188/537 547/187/536
f 549/151/506 548/188/537 541/181/530
f 549/151/506 550/158/538 548/188/537
f 551/144/539 552/142/540 501/145/541
f 482/126/473 500/144/491 483/127/474
f 482/126/473 492/136/483 553/144/491
f 554/189/542 555/191/543 556/190/544
f 554/189/542 557/192/545 555/191/543
f 558/193/535 554/189/542 556/190/544
f 558/193/535 556/190/544 559/194/546
f 484/128/475 558/193/535 559/194/546
f 485/129/476 558/193/535 484/128/475
f 476/119/467 475/120/466 560/127/547
f 476/119/508 510/154/502 561/195/548
f 510/154/502 518/159/509 561/195/548
f 562/119/549 561/195/550 563/196/551
f 564/197/552 562/119/549 563/196/551
f 564/197/552 474/118/553 562/119/549
f 565/198/554 390/43/381 566/41/380
f 565/198/554 567/199/555 390/43/381
f 567/199/555 398/50/389 390/43/381
f 568/200/556 569/203/557 570/202/558
f 568/200/556 570/202/558 571/201/559
f 571/201/559 570/202/558 572/204/560
f 571/201/559 572/204/560 573/205/561
f 570/202/558 569/203/557 574/206/562
f 569/203/557 575/207/563 574/206/562
f 570/202/558 574/206/562 576/208/564
f 570/202/558 577/209/565 572/204/560
f 570/202/558 576/208/564 577/209/565
f 578/210/566 577/209/565 576/208/564
f 572/204/560 577/209/565 578/210/566
f 578/210/566 576/208/564 579/211/567
f 572/204/560 578/210/566 580/212/568
f 581/205/569 572/204/560 580/212/568
f 581/205/569 580/212/568 582/213/570
f 582/213/570 580/212/568 583/214/571
f 582/213/570 583/214/571 584/215/572
f 583/214/571 580/212/568 585/216/573
f 580/212/568 578/210/566 586/217/574
f 586/217/574 587/218/575 580/212/568
f 578/210/566 587/218/575 586/217/574
f 578/210/566 579/211/567 587/218/575
f 580/212/568 587/218/575 585/216/573
f 583/214/576 588/216/577 589/219/578
f 590/220/579 591/218/580 592/221/581
f 593/222/582 591/218/580 590/220/579
f 593/222/582 594/216/573 591/218/580
f 595/223/583 594/216/573 593/222/582
f 292/247/290 596/249/584 597/257/585
f 597/257/585 598/256/586 292/247/290
f 599/260/587 598/256/586 597/257/585
f 600/261/282 598/256/586 599/260/587
f 292/247/290 598/256/586 294/226/292
f 596/249/588 289/248/589 601/258/590
f 601/258/590 289/248/589 602/259/591
f 603/259/592 289/248/593 604/255/594
f 605/255/595 289/248/286 278/254/288
f 606/69/408 412/66/555 607/269/596
f 608/270/597 609/272/598 610/271/599
f 610/271/599 609/272/598 611/273/600
f 612/274/333 613/276/601 614/275/602
f 614/275/602 613/276/601 615/271/603
f 616/270/604 615/271/603 613/276/601
f 617/277/605 369/21/360 618/278/606
f 372/24/363 369/21/360 617/277/605
f 618/278/606 369/21/360 376/28/367
